<?xml version="1.0" encoding="UTF-8"?>
<svg width="200" height="50" viewBox="0 0 200 50" fill="none" xmlns="http://www.w3.org/2000/svg">
  <path d="M20.5 10C14.7 10 10 14.7 10 20.5C10 26.3 14.7 31 20.5 31C26.3 31 31 26.3 31 20.5C31 14.7 26.3 10 20.5 10ZM20.5 28C16.36 28 13 24.64 13 20.5C13 16.36 16.36 13 20.5 13C24.64 13 28 16.36 28 20.5C28 24.64 24.64 28 20.5 28Z" fill="#FFD600"/>
  <path d="M30 33L27.56 30.56C26.54 31.47 25.33 32.17 20.5 32.5C15.67 32.17 14.46 31.47 13.44 30.56L11 33C12.44 34.44 14.33 35.5 20.5 36C26.67 35.5 28.56 34.44 30 33Z" fill="#FFD600"/>
  <path d="M44.136 35V16.6H47.232V32.372H55.776V35H44.136ZM62.4664 35.288C61.1624 35.288 60.0184 35.048 59.0344 34.568C58.0664 34.072 57.3104 33.392 56.7664 32.528C56.2384 31.664 55.9744 30.68 55.9744 29.576C55.9744 28.472 56.2384 27.488 56.7664 26.624C57.3104 25.76 58.0664 25.088 59.0344 24.608C60.0184 24.112 61.1624 23.864 62.4664 23.864C63.7704 23.864 64.9064 24.112 65.8744 24.608C66.8584 25.088 67.6144 25.76 68.1424 26.624C68.6864 27.488 68.9584 28.472 68.9584 29.576C68.9584 30.68 68.6864 31.664 68.1424 32.528C67.6144 33.392 66.8584 34.072 65.8744 34.568C64.9064 35.048 63.7704 35.288 62.4664 35.288ZM62.4664 32.804C63.4984 32.804 64.3424 32.492 64.9984 31.868C65.6704 31.228 66.0064 30.488 66.0064 29.648V29.504C66.0064 28.664 65.6704 27.932 64.9984 27.308C64.3424 26.668 63.4984 26.348 62.4664 26.348C61.4344 26.348 60.5824 26.668 59.9104 27.308C59.2544 27.932 58.9264 28.664 58.9264 29.504V29.648C58.9264 30.488 59.2544 31.228 59.9104 31.868C60.5824 32.492 61.4344 32.804 62.4664 32.804ZM76.8056 40.136C75.7736 40.136 74.7656 39.992 73.7816 39.704C72.7976 39.432 71.9696 39.032 71.2976 38.504L72.4496 36.308C72.9776 36.772 73.6416 37.132 74.4416 37.388C75.2416 37.66 76.0656 37.796 76.9136 37.796C78.1376 37.796 79.0576 37.524 79.6736 36.98C80.3056 36.452 80.6216 35.684 80.6216 34.676V33.2L80.7656 31.616L80.6936 30.032V24.152H83.6456V33.704C83.6456 35.872 83.0136 37.516 81.7496 38.636C80.5016 39.636 78.8696 40.136 76.8056 40.136ZM76.8056 33.992C75.4856 33.992 74.3576 33.64 73.4216 32.936C72.5016 32.232 71.8296 31.268 71.4056 30.044C70.9976 28.804 70.7936 27.368 70.7936 25.736C70.7936 24.088 71.0056 22.652 71.4296 21.428C71.8536 20.188 72.5256 19.224 73.4456 18.536C74.3816 17.832 75.5096 17.48 76.8296 17.48C77.9336 17.48 78.8696 17.72 79.6376 18.2C80.4056 18.664 80.9576 19.352 81.2936 20.264V17.768H84.2456V30.032C84.2456 30.464 84.2296 30.896 84.1976 31.328C84.1656 31.76 84.1096 32.192 84.0296 32.624C83.6696 33.92 82.9256 36.128 80.8376 36.128C79.6136 36.128 78.6056 35.584 77.7896 34.496C77.3816 33.992 77.0736 33.992 76.8056 33.992ZM78.3176 30.728C79.1976 30.728 79.9136 30.52 80.4736 30.104C81.0336 29.672 81.4496 29.072 81.7216 28.304C81.9936 27.52 82.1296 26.608 82.1296 25.568C82.1296 24.512 81.9936 23.608 81.7216 22.856C81.4496 22.088 81.0336 21.5 80.4736 21.092C79.9136 20.668 79.1976 20.456 78.3176 20.456C77.4216 20.456 76.6976 20.668 76.1456 21.092C75.5936 21.5 75.1776 22.088 74.8976 22.856C74.6336 23.608 74.5016 24.512 74.5016 25.568C74.5016 26.608 74.6336 27.52 74.8976 28.304C75.1776 29.072 75.5936 29.672 76.1456 30.104C76.6976 30.52 77.4216 30.728 78.3176 30.728ZM95.7694 35.288C94.4654 35.288 93.3214 35.048 92.3374 34.568C91.3694 34.072 90.6134 33.392 90.0694 32.528C89.5414 31.664 89.2774 30.68 89.2774 29.576C89.2774 28.472 89.5414 27.488 90.0694 26.624C90.6134 25.76 91.3694 25.088 92.3374 24.608C93.3214 24.112 94.4654 23.864 95.7694 23.864C97.0734 23.864 98.2094 24.112 99.1774 24.608C100.161 25.088 100.917 25.76 101.445 26.624C101.989 27.488 102.261 28.472 102.261 29.576C102.261 30.68 101.989 31.664 101.445 32.528C100.917 33.392 100.161 34.072 99.1774 34.568C98.2094 35.048 97.0734 35.288 95.7694 35.288ZM95.7694 32.804C96.8014 32.804 97.6454 32.492 98.3014 31.868C98.9734 31.228 99.3094 30.488 99.3094 29.648V29.504C99.3094 28.664 98.9734 27.932 98.3014 27.308C97.6454 26.668 96.8014 26.348 95.7694 26.348C94.7374 26.348 93.8854 26.668 93.2134 27.308C92.5574 27.932 92.2294 28.664 92.2294 29.504V29.648C92.2294 30.488 92.5574 31.228 93.2134 31.868C93.8854 32.492 94.7374 32.804 95.7694 32.804ZM105.099 35V24.152H107.907V26.144C108.339 25.488 108.915 24.984 109.635 24.632C110.371 24.28 111.211 24.104 112.155 24.104C113.259 24.104 114.211 24.328 115.011 24.776C115.827 25.224 116.451 25.84 116.883 26.624C117.331 27.408 117.555 28.296 117.555 29.288V35H114.603V29.648C114.603 28.624 114.323 27.84 113.763 27.296C113.219 26.736 112.467 26.456 111.507 26.456C110.531 26.456 109.747 26.752 109.155 27.344C108.563 27.92 108.267 28.752 108.267 29.84V35H105.099ZM126.388 35.288C125.084 35.288 123.94 35.048 122.956 34.568C121.988 34.072 121.232 33.392 120.688 32.528C120.16 31.664 119.896 30.68 119.896 29.576C119.896 28.472 120.16 27.488 120.688 26.624C121.232 25.76 121.988 25.088 122.956 24.608C123.94 24.112 125.084 23.864 126.388 23.864C127.692 23.864 128.828 24.112 129.796 24.608C130.78 25.088 131.536 25.76 132.064 26.624C132.608 27.488 132.88 28.472 132.88 29.576C132.88 30.68 132.608 31.664 132.064 32.528C131.536 33.392 130.78 34.072 129.796 34.568C128.828 35.048 127.692 35.288 126.388 35.288ZM126.388 32.804C127.42 32.804 128.264 32.492 128.92 31.868C129.592 31.228 129.928 30.488 129.928 29.648V29.504C129.928 28.664 129.592 27.932 128.92 27.308C128.264 26.668 127.42 26.348 126.388 26.348C125.356 26.348 124.504 26.668 123.832 27.308C123.176 27.932 122.848 28.664 122.848 29.504V29.648C122.848 30.488 123.176 31.228 123.832 31.868C124.504 32.492 125.356 32.804 126.388 32.804ZM141.018 35.288C139.75 35.288 138.618 35.04 137.618 34.544C136.634 34.032 135.858 33.352 135.298 32.504C134.754 31.64 134.482 30.68 134.482 29.624C134.482 28.552 134.754 27.592 135.298 26.744C135.858 25.896 136.634 25.224 137.618 24.728C138.618 24.216 139.75 23.96 141.018 23.96C142.29 23.96 143.362 24.216 144.234 24.728C145.122 25.224 145.738 25.888 146.082 26.72L143.754 28.112C143.53 27.648 143.21 27.28 142.794 27.008C142.394 26.72 141.922 26.576 141.378 26.576C140.618 26.576 140.002 26.8 139.53 27.248C139.058 27.696 138.822 28.28 138.822 29V30.296C138.822 31 139.058 31.576 139.53 32.024C140.002 32.456 140.618 32.672 141.378 32.672C141.922 32.672 142.394 32.536 142.794 32.264C143.21 31.976 143.53 31.6 143.754 31.136L146.082 32.528C145.738 33.36 145.122 34.024 144.234 34.52C143.362 35.032 142.29 35.288 141.018 35.288ZM147.675 35V16.6H150.843V35H147.675ZM159.458 35.288C158.154 35.288 157.01 35.048 156.026 34.568C155.058 34.072 154.302 33.392 153.758 32.528C153.23 31.664 152.966 30.68 152.966 29.576C152.966 28.472 153.23 27.488 153.758 26.624C154.302 25.76 155.058 25.088 156.026 24.608C157.01 24.112 158.154 23.864 159.458 23.864C160.762 23.864 161.898 24.112 162.866 24.608C163.85 25.088 164.606 25.76 165.134 26.624C165.678 27.488 165.95 28.472 165.95 29.576C165.95 30.68 165.678 31.664 165.134 32.528C164.606 33.392 163.85 34.072 162.866 34.568C161.898 35.048 160.762 35.288 159.458 35.288ZM159.458 32.804C160.49 32.804 161.334 32.492 161.99 31.868C162.662 31.228 162.998 30.488 162.998 29.648V29.504C162.998 28.664 162.662 27.932 161.99 27.308C161.334 26.668 160.49 26.348 159.458 26.348C158.426 26.348 157.574 26.668 156.902 27.308C156.246 27.932 155.918 28.664 155.918 29.504V29.648C155.918 30.488 156.246 31.228 156.902 31.868C157.574 32.492 158.426 32.804 159.458 32.804ZM174.088 35.288C172.784 35.288 171.64 35.048 170.656 34.568C169.688 34.072 168.932 33.392 168.388 32.528C167.86 31.664 167.596 30.68 167.596 29.576C167.596 28.472 167.86 27.488 168.388 26.624C168.932 25.76 169.688 25.088 170.656 24.608C171.64 24.112 172.784 23.864 174.088 23.864C175.392 23.864 176.528 24.112 177.496 24.608C178.48 25.088 179.236 25.76 179.764 26.624C180.308 27.488 180.58 28.472 180.58 29.576C180.58 30.68 180.308 31.664 179.764 32.528C179.236 33.392 178.48 34.072 177.496 34.568C176.528 35.048 175.392 35.288 174.088 35.288ZM174.088 32.804C175.12 32.804 175.964 32.492 176.62 31.868C177.292 31.228 177.628 30.488 177.628 29.648V29.504C177.628 28.664 177.292 27.932 176.62 27.308C175.964 26.668 175.12 26.348 174.088 26.348C173.056 26.348 172.204 26.668 171.532 27.308C170.876 27.932 170.548 28.664 170.548 29.504V29.648C170.548 30.488 170.876 31.228 171.532 31.868C172.204 32.492 173.056 32.804 174.088 32.804ZM187.878 35.288C186.734 35.288 185.718 35.064 184.83 34.616C183.958 34.152 183.27 33.52 182.766 32.72C182.262 31.92 182.01 31.008 182.01 29.984V24.152H184.962V29.864C184.962 30.76 185.226 31.416 185.754 31.832C186.282 32.248 186.942 32.456 187.734 32.456C188.374 32.456 188.926 32.336 189.39 32.096C189.854 31.856 190.206 31.504 190.446 31.04C190.702 30.56 190.83 29.976 190.83 29.288V24.152H193.782V35H190.974V33.056C190.542 33.76 189.966 34.296 189.246 34.664C188.542 35.08 187.734 35.288 186.822 35.288H187.878Z" fill="white"/>
</svg>